<svg width="68" height="60" viewBox="0 0 68 60" fill="none" xmlns="http://www.w3.org/2000/svg">
<g id="icon">
<path id="Vector" d="M67.3497 4.0661V44.951C67.3497 47.1929 65.5254 49.0171 63.2836 49.0171H42.9917V51.9763C42.9917 54.6886 45.1979 56.8948 47.9102 56.8948H52.3832C53.2402 56.8948 53.9358 57.5888 53.9358 58.4474C53.9358 59.3044 53.2402 60 52.3832 60H14.9666C14.1096 60 13.414 59.3044 13.414 58.4474C13.414 57.5888 14.1096 56.8948 14.9666 56.8948H19.4395C22.1517 56.8948 24.358 54.6886 24.358 51.9763V49.0171H4.0661C1.82423 49.0171 0 47.1929 0 44.951V4.0661C0 1.82423 1.82423 0 4.0661 0H63.2836C65.5254 0 67.3497 1.82423 67.3497 4.0661ZM64.2446 44.951V36.7924H3.10506V44.951C3.10506 45.4821 3.53665 45.9121 4.0661 45.9121H63.2836C63.813 45.9121 64.2446 45.4819 64.2446 44.951ZM64.2446 33.6872V4.0661C64.2446 3.53665 63.813 3.10506 63.2836 3.10506H4.0661C3.53665 3.10506 3.10506 3.53665 3.10506 4.0661V33.6872H64.2446ZM25.7723 56.8948H41.5772C40.5199 55.5348 39.8865 53.8286 39.8865 51.9763V49.0171H27.463V51.9763C27.4631 53.8284 26.8296 55.5348 25.7723 56.8948Z" fill="black"/>
<path id="Vector_2" d="M64.2446 36.7925V44.9511C64.2446 45.4822 63.813 45.9122 63.2835 45.9122H4.06609C3.53663 45.9122 3.10504 45.4822 3.10504 44.9511V36.7925H64.2446ZM35.35 41.3523C35.35 40.427 34.6001 39.6771 33.6748 39.6771C32.7495 39.6771 31.9996 40.427 31.9996 41.3523C31.9996 42.2775 32.7495 43.0275 33.6748 43.0275C34.6001 43.0275 35.35 42.2777 35.35 41.3523Z" fill="#0061FF"/>
<path id="Vector_3" d="M42.8411 17.0547C43.4466 17.6618 43.4466 18.6445 42.8411 19.2516L38.4692 23.6221C38.1663 23.9249 37.769 24.0769 37.3716 24.0769C36.9742 24.0769 36.5767 23.9247 36.2738 23.6221C35.6668 23.015 35.6668 22.0322 36.2738 21.4268L40.6443 17.0548C41.2513 16.4492 42.234 16.4492 42.8411 17.0547Z" fill="#FB724C"/>
<path id="Vector_4" d="M41.5774 56.8948H25.7723C26.8296 55.5347 27.463 53.8285 27.463 51.9763V49.0171H39.8865V51.9763C39.8866 53.8284 40.52 55.5347 41.5774 56.8948Z" fill="#FB724C" fill-opacity="0.5"/>
<g id="Group">
<path id="Vector_5" d="M36.3375 10.6969C36.943 11.3024 36.943 12.2867 36.3375 12.8922L25.3641 23.8642C25.0613 24.1684 24.6639 24.319 24.2666 24.319C23.8692 24.319 23.4716 24.1684 23.169 23.8642C22.5635 23.2587 22.5635 22.2759 23.169 21.6688L34.1409 10.6969C34.7477 10.09 35.7305 10.09 36.3375 10.6969Z" fill="#FB724C"/>
<path id="Vector_6" d="M33.6748 43.0274C34.6 43.0274 35.35 42.2774 35.35 41.3522C35.35 40.427 34.6 39.677 33.6748 39.677C32.7496 39.677 31.9996 40.427 31.9996 41.3522C31.9996 42.2774 32.7496 43.0274 33.6748 43.0274Z" fill="black"/>
</g>
</g>
</svg>
