<svg width="59" height="60" viewBox="0 0 59 60" fill="none" xmlns="http://www.w3.org/2000/svg">
<g id="icon">
<g id="Group">
<path id="Vector" d="M38.8151 45.032V37.2768L48.7546 31.8355L45.6525 30.1809L34.8209 36.1135V43.8687C34.8244 50.0254 38.4723 55.5965 44.1145 58.0609L45.6136 58.7203L46.4411 58.3583C41.7218 55.5768 38.8227 50.5101 38.8151 45.032Z" fill="black" fill-opacity="0.1"/>
<path id="Vector_2" d="M15.976 16.2471C15.976 9.41579 21.5138 3.87756 28.3456 3.87756C28.7459 3.87756 29.1337 3.90331 29.5215 3.92906C25.3742 0.676001 19.6214 0.407395 15.1889 3.26058C10.7569 6.11376 8.61866 11.4616 9.86273 16.5838C11.1068 21.706 15.4595 25.4776 20.7064 25.98C17.7195 23.6337 15.975 20.0454 15.976 16.2471Z" fill="#0061FF" fill-opacity="0.1"/>
<path id="Vector_3" d="M28.3324 34.2782C29.7921 34.2772 31.2477 34.4286 32.6756 34.7306C29.4286 32.7271 25.6847 31.6749 21.8697 31.6931C10.4828 31.7189 1.26685 40.8055 1.2926 53.175L7.88455 53.1624C9.06096 42.1369 17.7594 34.3039 28.3324 34.2782Z" fill="black" fill-opacity="0.1"/>
</g>
<path id="Vector_4" d="M21.8829 27.3241C29.4281 27.3241 35.5449 21.2078 35.5449 13.662C35.5449 6.11684 29.4281 0 21.8829 0C14.3377 0 8.22081 6.11684 8.22081 13.662C8.22788 21.2047 14.3402 27.317 21.8829 27.3241ZM21.8829 2.58508C28.0007 2.58508 32.9598 7.5447 32.9598 13.662C32.9598 19.7799 28.0007 24.739 21.8829 24.739C15.765 24.739 10.8059 19.7799 10.8059 13.662C10.813 7.54722 15.768 2.59215 21.8829 2.58508Z" fill="#0061FF"/>
<path id="Vector_5" d="M2.62401 51.8699C2.89514 46.7901 4.87283 42.1501 8.23344 38.6986C11.8137 35.0148 16.6607 32.9856 21.8697 32.9856H21.9086C26.223 32.9609 30.4172 34.4059 33.8 37.0829C33.9939 37.2384 34.1877 37.406 34.3816 37.5615L36.0619 35.6096C35.8423 35.4157 35.6227 35.235 35.4025 35.0537C31.5512 31.9905 26.8718 30.3879 21.8697 30.3879C15.9498 30.4006 10.4565 32.7014 6.385 36.889C2.24887 41.1286 -0.0130705 46.9062 5.68185e-05 53.175C0.00207654 53.8884 0.57968 54.4655 1.2926 54.4676L37.613 54.4029V51.8178L2.62401 51.8699Z" fill="black"/>
<path id="Vector_6" d="M50.0729 40.7406L44.2307 45.4973L42.1237 43.0283C41.6597 42.4861 40.8438 42.4224 40.3016 42.8865C39.7588 43.3505 39.6952 44.1664 40.1592 44.7086L43.0931 48.1339C43.34 48.4201 43.698 48.5852 44.0757 48.5862C44.3721 48.5888 44.6598 48.4883 44.8901 48.302L51.7148 42.7572C52.2692 42.3033 52.3515 41.4864 51.8991 40.9305C51.4467 40.3751 50.6303 40.2898 50.0729 40.7406Z" fill="#FB724C"/>
<path id="Vector_7" d="M57.3888 34.9633L46.2472 29.0307C45.8635 28.8212 45.3985 28.8262 45.0193 29.0433L34.1877 34.9764C33.7732 35.2046 33.5157 35.6403 33.5157 36.1134V43.8687C33.5233 50.5363 37.4746 56.5679 43.5844 59.2373L45.0839 59.8962C45.2465 59.9689 45.4232 60.0042 45.601 59.9997C45.7782 59.9966 45.9534 59.9618 46.118 59.8962L47.8109 59.1595C54.0322 56.5497 58.0785 50.4601 58.074 43.7137V36.1134C58.0745 35.6333 57.8114 35.1915 57.3888 34.9633ZM55.4889 43.7137C55.4914 49.4256 52.0606 54.5796 46.79 56.7814H46.7769L45.601 57.2853L44.6184 56.8587C39.4493 54.6003 36.1063 49.4973 36.1008 43.856V36.8632L45.6524 31.6284L55.4889 36.8763V43.7137Z" fill="black"/>
</g>
</svg>
