<svg width="60" height="60" viewBox="0 0 60 60" fill="none" xmlns="http://www.w3.org/2000/svg">
<g id="icon">
<path id="XMLID 3684" d="M1.17188 41.1177V44.297C1.17188 46.368 2.85082 48.047 4.92188 48.047H55.0781C57.1492 48.047 58.8281 46.368 58.8281 44.297V41.1177H1.17188Z" fill="#0061FF"/>
<path id="XMLID 2916" d="M46.4062 20.646V14.5103H43.7332C43.3743 12.8977 42.7391 11.3892 41.8791 10.0376L43.7702 8.14641L39.4316 3.80777L37.54 5.69941C36.1883 4.83984 34.6801 4.20504 33.0677 3.84645V1.17188H26.932V3.84645C25.3196 4.20504 23.8114 4.83984 22.4598 5.69941L20.5682 3.80777L16.2296 8.14641L18.1208 10.0376C17.2608 11.3892 16.6256 12.8977 16.2667 14.5103H13.5938V20.646H16.266C16.6245 22.2592 17.2595 23.7681 18.1194 25.1202L16.2298 27.0098L20.5683 31.3484L22.4575 29.4592C23.8097 30.3196 25.3187 30.955 26.9321 31.3138V33.9844H33.0679V31.3138C34.6812 30.955 36.1903 30.3196 37.5425 29.4592L39.4317 31.3484L43.7703 27.0098L41.8807 25.1202C42.7406 23.7681 43.3757 22.2592 43.7341 20.646H46.4062Z" fill="#FB724C"/>
<path id="XMLID 1638" d="M22.4459 58.8281C24.491 57.5433 25.7322 55.2977 25.7322 52.8825V48.0469H34.2677V52.8825C34.2677 55.2976 35.5089 57.5433 37.554 58.8281H22.4459Z" fill="#FB724C" fill-opacity="0.5"/>
<g id="XMLID 147">
<path id="XMLID 148" d="M30 39.9458C29.6918 39.9458 29.3895 40.0712 29.1715 40.2892C28.9535 40.5071 28.8281 40.8095 28.8281 41.1177C28.8281 41.4259 28.9534 41.7282 29.1715 41.9462C29.3896 42.1642 29.6918 42.2896 30 42.2896C30.3082 42.2896 30.6105 42.1642 30.8284 41.9462C31.0464 41.7282 31.1719 41.4259 31.1719 41.1177C31.1719 40.8095 31.0465 40.5071 30.8284 40.2892C30.6105 40.0712 30.3082 39.9458 30 39.9458Z" fill="black"/>
<path id="XMLID 173" d="M30 26.9551C35.1694 26.9551 39.375 22.7495 39.375 17.5801C39.375 12.4107 35.1694 8.20508 30 8.20508C24.8306 8.20508 20.625 12.4107 20.625 17.5801C20.625 22.7495 24.8306 26.9551 30 26.9551ZM30 10.5488C33.877 10.5488 37.0312 13.703 37.0312 17.5801C37.0312 21.4571 33.877 24.6113 30 24.6113C26.123 24.6113 22.9688 21.4571 22.9688 17.5801C22.9688 13.703 26.123 10.5488 30 10.5488Z" fill="black"/>
<path id="XMLID 176" d="M55.0781 6.32812H43.6091L40.2602 2.97926C40.0404 2.75953 39.7424 2.63602 39.4316 2.63602C39.1208 2.63602 38.8227 2.75953 38.603 2.97926L37.3548 4.22754C36.366 3.68156 35.3237 3.24961 34.2397 2.93672V1.17188C34.2397 0.524648 33.715 0 33.0678 0H26.9323C26.2852 0 25.7604 0.524648 25.7604 1.17188V2.93672C24.6764 3.24961 23.634 3.68156 22.6453 4.22754L21.3971 2.97926C21.1774 2.75953 20.8793 2.63602 20.5685 2.63602C20.2577 2.63602 19.9597 2.75953 19.7399 2.97926L16.3909 6.32812H4.92188C2.20793 6.32812 0 8.53605 0 11.25V44.2969C0 47.0108 2.20793 49.2188 4.92188 49.2188H24.5604V52.8825C24.5604 54.9072 23.537 56.7588 21.8227 57.8358C21.3804 58.1136 21.1754 58.6506 21.3199 59.1525C21.4644 59.6544 21.9237 60 22.446 60H37.554C38.0763 60 38.5356 59.6544 38.6801 59.1525C38.8246 58.6506 38.6196 58.1136 38.1773 57.8358C36.463 56.7588 35.4396 54.9072 35.4396 52.8825V49.2188H55.0781C57.7921 49.2188 60 47.0108 60 44.2969V11.25C60 8.53605 57.7921 6.32812 55.0781 6.32812ZM20.5684 5.46516L21.6313 6.52816C22.0195 6.91641 22.6255 6.98309 23.0889 6.68836C24.3509 5.88574 25.7295 5.31457 27.1867 4.99055C27.7227 4.87125 28.1041 4.39582 28.1041 3.84656V2.34375H31.896V3.84656C31.896 4.39582 32.2774 4.87125 32.8134 4.99055C34.2707 5.31457 35.6493 5.88586 36.9113 6.68836C37.3744 6.98297 37.9804 6.91652 38.3688 6.52816L39.4317 5.46516L42.113 8.14652L41.0505 9.20895C40.6623 9.5973 40.5956 10.2033 40.8906 10.6666C41.6936 11.9286 42.2651 13.3075 42.5895 14.7648C42.7087 15.3008 43.1842 15.6821 43.7333 15.6821H45.2344V19.474H43.734C43.1848 19.474 42.7092 19.8554 42.59 20.3917C42.2659 21.8496 41.6945 23.2289 40.8918 24.4913C40.5969 24.9546 40.6636 25.5605 41.0518 25.9488L42.1129 27.0098L39.4316 29.6911L38.3711 28.6305C37.9826 28.2422 37.3765 28.1756 36.9134 28.4705C35.6509 29.2738 34.2715 29.8455 32.8134 30.1698C32.2774 30.289 31.896 30.7645 31.896 31.3137V32.8125H28.1041V31.3138C28.1041 30.7645 27.7227 30.2891 27.1867 30.1699C25.7286 29.8455 24.3492 29.2739 23.0868 28.4706C22.6236 28.1757 22.0175 28.2423 21.6291 28.6307L20.5685 29.6912L17.8873 27.01L18.9483 25.9489C19.3365 25.5606 19.4032 24.9547 19.1084 24.4914C18.3055 23.229 17.7341 21.8497 17.4101 20.3918C17.2909 19.8555 16.8154 19.4741 16.2661 19.4741H14.7656V15.6823H16.2669C16.8161 15.6823 17.2915 15.3009 17.4108 14.7649C17.7353 13.3075 18.3068 11.9288 19.1096 10.6668C19.4046 10.2034 19.3379 9.59742 18.9497 9.20906L17.8873 8.14664L20.5684 5.46516ZM34.623 57.6562H25.377C26.3586 56.289 26.9041 54.6319 26.9041 52.8825V49.2188H33.0959V52.8825C33.0959 54.6319 33.6414 56.289 34.623 57.6562ZM55.0781 46.875H4.92188C3.50027 46.875 2.34375 45.7185 2.34375 44.2969V42.2895H24.7421C25.3893 42.2895 25.914 41.7648 25.914 41.1176C25.914 40.4704 25.3893 39.9457 24.7421 39.9457H2.34375V11.25C2.34375 9.8284 3.50027 8.67188 4.92188 8.67188H15.1828C15.2377 8.78121 15.3098 8.88398 15.4011 8.97516L16.6488 10.2227C16.1025 11.2116 15.6702 12.2541 15.3572 13.3384H13.5938C12.9466 13.3384 12.4219 13.863 12.4219 14.5103V20.6459C12.4219 21.2931 12.9466 21.8177 13.5938 21.8177H15.356C15.669 22.9025 16.1011 23.9455 16.6475 24.9348L15.4011 26.1811C14.9435 26.6387 14.9435 27.3807 15.4011 27.8385L19.7396 32.177C20.1974 32.6346 20.9392 32.6346 21.397 32.177L22.6427 30.9313C23.6321 31.478 24.6754 31.9103 25.7604 32.2235V33.9844C25.7604 34.6316 26.2852 35.1562 26.9323 35.1562H33.0678C33.715 35.1562 34.2397 34.6316 34.2397 33.9844V32.2235C35.3248 31.9104 36.3679 31.478 37.3574 30.9313L38.6031 32.177C39.0608 32.6346 39.8026 32.6346 40.2605 32.177L44.599 27.8385C45.0566 27.3809 45.0566 26.6388 44.599 26.1811L43.3526 24.9348C43.8989 23.9455 44.3311 22.9025 44.6441 21.8177H46.4062C47.0534 21.8177 47.5781 21.2931 47.5781 20.6459V14.5103C47.5781 13.863 47.0534 13.3384 46.4062 13.3384H44.6428C44.3297 12.2542 43.8975 11.2117 43.3512 10.2227L44.5989 8.97516C44.69 8.88398 44.7623 8.78121 44.8172 8.67188H55.0781C56.4997 8.67188 57.6562 9.8284 57.6562 11.25V39.9457H35.2888C34.6417 39.9457 34.1169 40.4704 34.1169 41.1176C34.1169 41.7648 34.6417 42.2895 35.2888 42.2895H57.6562V44.2969C57.6562 45.7185 56.4997 46.875 55.0781 46.875Z" fill="black"/>
</g>
</g>
</svg>
